M48
INCH,TZ
T1C0.0118
T2C0.0197
T3C0.0354
T4C0.0394
%
G90
G05
T1
X34134Y-44685
X34134Y-46063
X34134Y-47441
X34375Y-36614
X34533Y-35866
X34553Y-42657
X34572Y-40148
X35005Y-38937
X35039Y-41496
X35433Y-47441
X35945Y-40591
X36029Y-45433
X36378Y-42421
X36516Y-41024
X37008Y-47441
X37008Y-49213
X37067Y-37047
X37067Y-37648
X37795Y-35827
X37795Y-37533
X37795Y-39239
X39055Y-44734
X39350Y-45128
X40157Y-35827
X40157Y-39239
X40157Y-40945
X40157Y-41407
X41524Y-42131
X41831Y-45541
X42188Y-42598
X42520Y-35827
X42520Y-37533
X42520Y-39239
X42520Y-40945
X42913Y-47441
X42913Y-49213
X43034Y-42165
X43704Y-42756
X44193Y-46811
X44213Y-45453
X44488Y-47441
X44715Y-37756
X44764Y-46260
X45785Y-44685
X45785Y-46063
X45785Y-47441
T2
X34562Y-37470
X41440Y-44163
T4
X37283Y-43661
X38283Y-43661
X38583Y-47598
X39283Y-43661
X39567Y-47598
X40283Y-43661
X40354Y-47598
X41339Y-47598
X45472Y-36476
X45472Y-37476
X45472Y-38476
X45472Y-39476
X45472Y-40476
X45472Y-41476
T3
G00X37657Y-48071
M15
G01X37657Y-48701
M16
G05
G00X42264Y-48071
M15
G01X42264Y-48701
M16
G05
T0
M30
